# xmcd
#
# Track frame offsets: 
#        150
#        11474
#        32592
#        48471
#        64865
#        82791
#        101784
#        114842
#        133102
#        150097
#        176953
#        214032
#        231962
#        247395
#        259242
#        272249
#        302520
#        315170
#
# Disc length: 4609 seconds
#
# Revision: 1
# Processed by: cddbd v1.5.2PL0 Copyright (c) Steve Scherf et al.
# Submitted via: ExactAudioCopyFreeDBPlugin 1.0
#
DISCID=ed11ff12
DTITLE=Nathaniel Rateliff - Live at Red Rocks
DYEAR=2017
DGENRE=Soul
TTITLE0=Failing Dirge (ft Preservation Hall Jazz Band)
TTITLE1=I've Been Failing (ft Preservation Hall Jazz Band)
TTITLE2=Look It Here (ft Preservation Hall Jazz Band)
TTITLE3=Intro
TTITLE4=Howling At Nothing
TTITLE5=Wasting Time
TTITLE6=Mellow Out
TTITLE7=Early Spring Till
TTITLE8=You Should've Seen The Other Guy
TTITLE9=I Need Never Get Old
TTITLE10=Shake
TTITLE11=Out On The Weekend
TTITLE12=Thank You
TTITLE13=I Did It
TTITLE14=Trying So Hard Not To Know
TTITLE15=S.O.B. (explicit) (ft Preservation Hall Jazz Band)
TTITLE16=S.O.B. (Reprise) (ft Preservation Hall Jazz Band)
TTITLE17=Having A Party (ft Preservation Hall Jazz Band)
EXTD=YEAR: 2017
EXTT0=
EXTT1=
EXTT2=
EXTT3=
EXTT4=
EXTT5=
EXTT6=
EXTT7=
EXTT8=
EXTT9=
EXTT10=
EXTT11=
EXTT12=
EXTT13=
EXTT14=
EXTT15=
EXTT16=
EXTT17=
PLAYORDER=
